<?xml version="1.0" encoding="UTF-8" standalone="no"?>
<!-- Created with Inkscape (http://www.inkscape.org/) -->

<svg
   width="70.902168mm"
   height="68.22506mm"
   viewBox="0 0 70.902168 68.22506"
   version="1.1"
   id="svg1"
   inkscape:version="1.3.1 (1:1.3.1+202311172155+91b66b0783)"
   sodipodi:docname="BioInfLogo.svg"
   inkscape:export-filename="BioInfLogo.png"
   inkscape:export-xdpi="35.824013"
   inkscape:export-ydpi="35.824013"
   xmlns:inkscape="http://www.inkscape.org/namespaces/inkscape"
   xmlns:sodipodi="http://sodipodi.sourceforge.net/DTD/sodipodi-0.dtd"
   xmlns="http://www.w3.org/2000/svg"
   xmlns:svg="http://www.w3.org/2000/svg">
  <sodipodi:namedview
     id="namedview1"
     pagecolor="#7c7c7c"
     bordercolor="#666666"
     borderopacity="1.0"
     inkscape:showpageshadow="2"
     inkscape:pageopacity="0.0"
     inkscape:pagecheckerboard="0"
     inkscape:deskcolor="#d1d1d1"
     inkscape:document-units="mm"
     inkscape:zoom="2.1014404"
     inkscape:cx="158.9386"
     inkscape:cy="154.65583"
     inkscape:window-width="1920"
     inkscape:window-height="1016"
     inkscape:window-x="0"
     inkscape:window-y="0"
     inkscape:window-maximized="1"
     inkscape:current-layer="g3006" />
  <defs
     id="defs1">
    <linearGradient
       id="linearGradient3236">
      <stop
         style="stop-color:#ffffff;stop-opacity:1;"
         offset="0"
         id="stop3238" />
      <stop
         style="stop-color:#99a1bf;stop-opacity:1;"
         offset="1"
         id="stop3240" />
    </linearGradient>
  </defs>
  <g
     inkscape:label="Layer 1"
     inkscape:groupmode="layer"
     id="layer1"
     transform="translate(-124.35417,-39.6875)">
    <g
       id="g1000"
       transform="matrix(0.26458333,0,0,0.26458333,-300.00463,344.05866)"
       style="display:inline">
      <g
         id="g3006"
         transform="matrix(0.52157339,0,0,0.52157339,1603.8758,-1150.3792)"
         style="stroke-width:1.91727">
        <g
           inkscape:label="hinter"
           id="layer1-12"
           style="display:inline;fill:#344a9a;fill-opacity:0;stroke-width:1.91727"
           transform="translate(-82.25032,-239.45496)">
          <rect
             style="display:inline;overflow:visible;visibility:visible;fill:#344a9a;fill-opacity:0;fill-rule:nonzero;stroke:none;stroke-width:0.327854;stroke-linecap:butt;stroke-linejoin:miter;stroke-miterlimit:4;stroke-dasharray:none;stroke-dashoffset:0;stroke-opacity:1;marker:none;marker-start:none;marker-mid:none;marker-end:none;enable-background:accumulate"
             id="rect3244"
             width="513.78522"
             height="494.38583"
             x="82.25032"
             y="239.45496"
             ry="219.85054"
             inkscape:export-filename="/home/mmohl/bioinf-www/web/pics/bioinf-fr-logo-blau.png"
             inkscape:export-xdpi="23.64802"
             inkscape:export-ydpi="23.64802"
             rx="219.85054" />
        </g>
        <g
           id="layer2-0"
           inkscape:label="3D"
           style="display:inline;stroke-width:1.91727"
           transform="translate(-82.25032,-239.45496)">
          <path
             id="path3263"
             style="display:inline;overflow:visible;visibility:visible;fill:none;fill-opacity:1;fill-rule:nonzero;stroke:none;stroke-width:7.35357;stroke-linecap:butt;stroke-linejoin:miter;stroke-miterlimit:10;stroke-dashoffset:0;stroke-opacity:1;marker:none;marker-start:none;marker-mid:none;marker-end:none;enable-background:accumulate"
             d="m 268.07114,429.71063 h 81.87525 c 2.73102,0 4.92965,2.19863 4.92965,4.92967 v 9.85931 c 0,2.73104 -2.19863,4.92967 -4.92965,4.92967 h -81.87525 c -2.73103,0 -4.92966,-2.19863 -4.92966,-4.92967 v -9.85931 c 0,-2.73104 2.19863,-4.92967 4.92966,-4.92967 z m -112.3369,-132.06483 -1.22183,8.24733 h 2.90184 c 9.92733,0 12.06554,0.76365 12.06554,4.12367 0,1.37455 -0.61091,4.58185 -1.98547,9.62189 L 149.6251,385.9228 c -2.74911,10.38552 -2.74911,10.38553 -3.97093,11.60735 -1.68002,1.52729 -5.34551,2.1382 -11.76009,2.1382 h -0.61091 l -1.0691,8.24733 h 63.84046 c 11.9128,0 23.6729,-1.98547 32.07295,-5.49822 9.92734,-3.97094 16.03648,-13.44011 16.03648,-24.28381 0,-14.35646 -9.6219,-22.90926 -29.6293,-26.42201 22.60378,-2.59638 35.28025,-12.67647 35.28025,-27.94929 0,-8.85824 -4.2764,-16.34194 -11.76008,-20.77106 -5.80367,-3.51275 -16.03649,-5.34549 -28.56021,-5.34549 h -53.76038 m 31.15658,49.63672 8.70552,-32.22569 c 1.98547,-7.48368 3.66549,-9.1637 9.1637,-9.1637 h 2.29093 c 9.46915,0 14.81465,5.49823 14.81465,15.42557 0,9.16369 -3.97095,17.56376 -10.53826,21.99288 -4.58185,3.05457 -8.85825,3.97094 -19.70196,3.97094 h -4.73458 m -2.13819,8.24733 h 7.63642 c 10.23279,0 13.13464,0.61091 16.95285,3.2073 3.8182,2.74911 5.65094,7.02551 5.65094,13.59282 0,8.85824 -3.2073,17.25831 -8.55278,21.68743 -4.2764,3.66548 -10.84373,5.65095 -18.78559,5.65095 h -5.04004 c -5.49821,0 -8.0946,-1.37456 -8.0946,-4.58185 0,-1.0691 0.30545,-2.59638 1.22182,-5.80368 l 9.01098,-33.75297 M 490.88176,668.96 l 1.17295,-7.9175 h -3.22562 c -9.53024,0 -11.58292,-0.7331 -11.58292,-3.9587 0,-1.1729 0,-1.1729 2.05267,-9.237 l 17.00783,-63.6327 c 2.63915,-10.11675 2.63915,-10.11676 3.95872,-11.1431 1.46619,-1.46619 4.98506,-2.05267 11.14306,-2.05267 h 1.02634 l 1.02633,-7.91744 h -54.68897 l -1.17296,7.91744 h 3.22563 c 9.53024,0 11.58291,0.7331 11.58291,3.95872 0,1.31957 -0.58647,4.25197 -2.05266,9.23705 l -17.00784,63.6327 c -2.63914,9.9701 -2.63914,9.9701 -3.95872,11.1431 -1.46619,1.4662 -4.98506,2.0526 -11.14306,2.0526 h -1.02633 l -1.02634,7.9175 h 54.68898 M 307.44785,491.58383 c -7.35539,0 -13.94106,3.84877 -19.75694,11.71732 -5.5593,7.52645 -9.06596,18.47404 -9.06596,28.39526 0,13.00023 6.75672,21.4675 17.10558,21.4675 15.13842,0 28.39526,-18.55957 28.39526,-39.94152 0,-13.17129 -6.50013,-21.63856 -16.67794,-21.63856 m -0.42764,4.19087 c 2.82242,0 4.53298,2.65136 4.53298,7.18434 0,6.58564 -2.65137,21.29645 -5.64484,31.04662 -3.33559,10.94756 -5.98695,14.79633 -10.00676,14.79633 -2.99348,0 -4.87509,-2.30926 -4.87509,-6.07248 0,-5.90142 2.65136,-20.78329 5.47378,-30.9611 2.99348,-10.60545 6.50012,-15.99371 10.51993,-15.99371 m 95.37008,-81.11459 h -3.50665 c -3.84875,2.90795 -14.88186,5.8159 -23.52016,6.15801 l -1.11187,4.27639 h 7.69751 c 2.90795,0 3.84876,0.51317 3.84876,2.22373 0,0.76975 -0.0855,1.28292 -0.68423,3.25006 l -8.55278,32.24401 c -1.62503,5.90142 -1.62503,5.90143 -2.30926,6.50012 -0.85528,0.85528 -2.90795,1.19739 -6.50012,1.19739 h -4.36192 l -0.68422,4.61851 h 36.09277 l 0.59869,-4.61851 h -4.27639 c -5.55931,0 -6.75671,-0.42764 -6.75671,-2.30925 0,-0.76975 0.42764,-2.65136 1.11187,-5.38826 l 12.91471,-48.1522 M 538.3988,348.27889 c 19.22166,-0.15525 22.02274,27.29601 0.0913,28.03521 -1.92601,0.13296 -41.06307,5.53974 -51.03993,6.77528 -5.67321,0.6006 -11.31145,1.47132 -16.96882,2.19701 -6.94357,0.95482 -13.89303,1.86747 -20.82783,2.88641 -10.25005,1.44145 -20.48019,3.02423 -30.68631,4.75014 -12.3853,2.12828 -24.77278,4.27459 -37.06174,6.91279 -10.41762,2.29633 -20.83036,4.66719 -31.05733,7.71898 -6.25788,1.92349 -12.48859,3.95465 -18.60498,6.29437 -7.89104,3.21151 -15.69127,6.79137 -22.79675,11.53039 -9.84967,6.37744 -18.50481,14.61616 -25.2715,24.20762 -4.31844,5.98806 -7.79715,12.54941 -10.58417,19.3781 -2.58599,6.40892 -4.775,12.97754 -6.63687,19.63206 -2.96416,11.37617 -5.36164,22.90097 -7.1511,34.52079 -1.46713,9.23917 -2.73085,18.50944 -3.84702,27.79719 -0.64605,5.78626 -1.16917,11.58576 -1.77587,17.37621 -1.13159,10.91546 -2.02514,21.85356 -2.80855,32.79896 -0.44983,6.8546 -1.07493,13.6972 -1.40468,20.5597 -0.49429,10.6896 -3.92685,35.4897 -4.21374,46.1887 -2.10557,18.58 -28.37007,13.605 -28.0352,1.1212 0.33488,-12.4838 1.35642,-24.9344 1.93326,-37.407 0.38473,-8.0071 1.11405,-15.991 1.63893,-23.9891 0.91414,-12.771 1.95671,-25.5336 3.27704,-38.26958 0.70793,-6.75639 1.31832,-13.52323 2.07207,-20.27455 1.30228,-10.83703 2.77681,-21.65344 4.48865,-32.43367 2.08794,-13.55799 4.8853,-27.0051 8.34394,-40.27892 2.1724,-7.76445 4.72655,-15.42871 7.74387,-22.90656 3.25183,-7.96777 7.31089,-15.62354 12.34952,-22.61035 7.89548,-11.19135 17.99413,-20.80428 29.4868,-28.24541 8.29066,-5.52951 17.39195,-9.70635 26.59925,-13.45355 7.13645,-2.73 14.40648,-5.09995 21.70825,-7.34426 11.93267,-3.56095 24.08231,-6.32716 36.23753,-9.00661 14.33878,-3.07823 28.79243,-5.58254 43.24362,-8.0657 11.90851,-2.01389 23.84492,-3.86058 35.80474,-5.54255 8.09137,-1.18878 16.19999,-2.25381 24.30185,-3.36782 6.60096,-0.84673 13.17966,-1.86277 19.7991,-2.56354 11.64099,-1.44152 39.40534,-4.76669 41.65267,-4.92194 z M 347.33714,506.41935 h 71.64742 c 2.73104,0 4.92967,2.19863 4.92967,4.92966 v 9.85933 c 0,2.73102 -2.19863,4.92965 -4.92967,4.92965 h -71.64742 c -2.73102,0 -4.92965,-2.19863 -4.92965,-4.92965 v -9.85933 c 0,-2.73103 2.19863,-4.92966 4.92965,-4.92966 z M 156.50298,618.7251 c -19.22166,0.1553 -22.02274,-27.296 -0.0913,-28.0352 1.92601,-0.133 41.06308,-5.5397 51.03993,-6.7753 5.67322,-0.6006 11.31145,-1.4713 16.96882,-2.197 6.94358,-0.9548 13.89303,-1.86745 20.82784,-2.88639 10.25004,-1.44145 20.48018,-3.02423 30.68631,-4.75015 12.38529,-2.12827 24.77277,-4.27459 37.06173,-6.91278 10.41762,-2.29633 20.83037,-4.66719 31.05733,-7.71898 6.25788,-1.9235 12.48859,-3.95465 18.60498,-6.29437 7.89105,-3.21151 15.69128,-6.79137 22.79675,-11.53039 9.84967,-6.37744 18.50481,-14.61616 25.27151,-24.20762 4.31844,-5.98806 7.79714,-12.54941 10.58416,-19.3781 2.586,-6.40892 4.775,-12.97755 6.63688,-19.63206 2.96416,-11.37617 5.36163,-22.90098 7.1511,-34.52079 1.46712,-9.23917 2.73085,-18.50944 3.84702,-27.7972 0.64604,-5.78625 1.16916,-11.58575 1.77586,-17.3762 1.13159,-10.91546 2.02514,-21.85355 2.80856,-32.79896 0.44982,-6.85461 1.07492,-13.69716 1.40467,-20.55973 0.49429,-10.68958 3.92686,-35.48967 4.21374,-46.18873 2.10557,-18.57998 28.37008,-13.60494 28.0352,-1.12115 -0.33488,12.48379 -1.35642,24.93444 -1.93326,37.40703 -0.38473,8.0071 -1.11404,15.99099 -1.63893,23.98905 -0.91414,12.771 -1.9567,25.53362 -3.27703,38.2696 -0.70794,6.7564 -1.31833,13.52323 -2.07208,20.27455 -1.30228,10.83704 -2.77681,21.65344 -4.48865,32.43368 -2.08794,13.55799 -4.8853,27.0051 -8.34394,40.27891 -2.1724,7.76446 -4.72655,15.42872 -7.74386,22.90656 -3.25184,7.96778 -7.3109,15.62354 -12.34953,22.61036 -7.89548,11.19135 -17.99413,20.80428 -29.4868,28.24541 -8.29066,5.52951 -17.39195,9.70635 -26.59925,13.45354 -7.13645,2.73001 -14.40647,5.09991 -21.70825,7.34431 -11.93267,3.5609 -24.0823,6.3271 -36.23753,9.0066 -14.33878,3.0782 -28.79243,5.5825 -43.24362,8.0657 -11.90851,2.0139 -23.84492,3.8606 -35.80474,5.5425 -8.09137,1.1888 -16.19999,2.2538 -24.30184,3.3678 -6.60097,0.8468 -13.17967,1.8628 -19.79911,2.5636 -11.64098,1.4415 -39.40533,4.7667 -41.65267,4.9219 z" />
        </g>
        <g
           id="layer3"
           inkscape:label="logo"
           style="display:inline;fill:#ffffff;fill-opacity:1;stroke-width:1.91727;stroke:none;stroke-opacity:1"
           transform="translate(-82.25032,-239.45496)">
          <path
             id="path3239"
             style="display:inline;overflow:visible;visibility:visible;fill:#ffffff;fill-opacity:1;fill-rule:nonzero;stroke:none;stroke-width:25.2777;stroke-linecap:butt;stroke-linejoin:miter;stroke-miterlimit:10;stroke-dashoffset:0;stroke-opacity:1;marker:none;marker-start:none;marker-mid:none;marker-end:none;enable-background:accumulate"
             d="m 154.5218,296.43335 -1.22183,8.24733 h 2.90184 c 9.92733,0 12.06554,0.76365 12.06554,4.12367 0,1.37455 -0.61091,4.58185 -1.98547,9.62188 l -17.86922,66.28412 c -2.74911,10.38552 -2.74911,10.38553 -3.97094,11.60735 -1.68001,1.52729 -5.3455,2.1382 -11.76008,2.1382 h -0.61091 l -1.0691,8.24733 h 63.84046 c 11.9128,0 23.6729,-1.98547 32.07295,-5.49822 9.92734,-3.97094 16.03648,-13.44011 16.03648,-24.28381 0,-14.35646 -9.6219,-22.90926 -29.6293,-26.42201 22.60378,-2.59638 35.28025,-12.67647 35.28025,-27.94929 0,-8.85824 -4.2764,-16.34194 -11.76008,-20.77106 -5.80367,-3.51275 -16.03649,-5.34549 -28.56021,-5.34549 H 154.5218 m 31.15658,49.63672 8.70552,-32.22569 c 1.98547,-7.48368 3.66549,-9.1637 9.1637,-9.1637 h 2.29093 c 9.46915,0 14.81465,5.49823 14.81465,15.42557 0,9.16369 -3.97095,17.56376 -10.53826,21.99288 -4.58185,3.05457 -8.85825,3.97094 -19.70196,3.97094 h -4.73458 m -2.13819,8.24733 h 7.63642 c 10.23279,0 13.13464,0.61091 16.95284,3.2073 3.81821,2.74911 5.65095,7.02551 5.65095,13.59282 0,8.85824 -3.2073,17.25831 -8.55278,21.68743 -4.2764,3.66548 -10.84373,5.65095 -18.78559,5.65095 h -5.04004 c -5.49821,0 -8.0946,-1.37456 -8.0946,-4.58185 0,-1.0691 0.30545,-2.59638 1.22182,-5.80368 l 9.01098,-33.75297 m 83.31851,74.18078 h 81.87525 c 2.73102,0 4.92965,2.19863 4.92965,4.92967 v 9.85931 c 0,2.73104 -2.19863,4.92967 -4.92965,4.92967 H 266.8587 c -2.73103,0 -4.92966,-2.19863 -4.92966,-4.92967 v -9.85931 c 0,-2.73104 2.19863,-4.92967 4.92966,-4.92967 z m 222.81062,239.24932 1.17295,-7.9174 h -3.22562 c -9.53024,0 -11.58292,-0.7331 -11.58292,-3.9587 0,-1.173 0,-1.173 2.05267,-9.237 l 17.00783,-63.6328 c 2.63915,-10.1167 2.63915,-10.11671 3.95872,-11.14305 1.46619,-1.46619 4.98506,-2.05267 11.14306,-2.05267 h 1.02634 l 1.02633,-7.91744 h -54.68897 l -1.17296,7.91744 h 3.22563 c 9.53024,0 11.58291,0.7331 11.58291,3.95872 0,1.31957 -0.58647,4.25197 -2.05266,9.237 l -17.00784,63.6328 c -2.63914,9.9701 -2.63914,9.9701 -3.95872,11.143 -1.46619,1.4662 -4.98506,2.0527 -11.14306,2.0527 h -1.02633 l -1.02634,7.9174 h 54.68898 M 306.23541,491.21367 c -7.35539,0 -13.94106,3.84876 -19.75694,11.71732 -5.5593,7.52644 -9.06596,18.47403 -9.06596,28.39526 0,13.00022 6.75671,21.46749 17.10558,21.46749 15.13842,0 28.39526,-18.55957 28.39526,-39.94152 0,-13.17128 -6.50013,-21.63855 -16.67794,-21.63855 m -0.42764,4.19086 c 2.82242,0 4.53298,2.65137 4.53298,7.18435 0,6.58563 -2.65137,21.29645 -5.64484,31.04662 -3.33559,10.94756 -5.98695,14.79632 -10.00676,14.79632 -2.99348,0 -4.87509,-2.30925 -4.87509,-6.07248 0,-5.90141 2.65136,-20.78328 5.47378,-30.96109 2.99348,-10.60545 6.50012,-15.99372 10.51993,-15.99372 m 95.37008,-81.95687 h -3.50665 c -3.84875,2.90795 -14.88186,5.8159 -23.52016,6.15801 l -1.11187,4.2764 h 7.69751 c 2.90795,0 3.84876,0.51316 3.84876,2.22372 0,0.76975 -0.0855,1.28292 -0.68423,3.25006 l -8.55278,32.24401 c -1.62503,5.90142 -1.62503,5.90143 -2.30926,6.50012 -0.85528,0.85528 -2.90795,1.19739 -6.50012,1.19739 h -4.36192 l -0.68422,4.61851 h 36.09277 l 0.59869,-4.61851 h -4.27639 c -5.55931,0 -6.75671,-0.42764 -6.75671,-2.30925 0,-0.76975 0.42764,-2.65136 1.11187,-5.38826 l 12.91471,-48.1522 m 136.00851,-66.38122 c 19.22166,-0.15525 22.02274,27.29601 0.0913,28.03521 -1.92601,0.13296 -41.06307,5.53974 -51.03993,6.77528 -5.67321,0.6006 -11.31145,1.47132 -16.96882,2.19701 -6.94357,0.95482 -13.89303,1.86747 -20.82783,2.88641 -10.25005,1.44145 -20.48019,3.02423 -30.68631,4.75014 -12.3853,2.12828 -24.77278,4.27459 -37.06174,6.91279 -10.41762,2.29633 -20.83036,4.66719 -31.05733,7.71898 -6.25788,1.92349 -12.48859,3.95465 -18.60498,6.29437 -7.89104,3.21151 -15.69127,6.79137 -22.79675,11.53039 -9.84967,6.37744 -18.50481,14.61616 -25.2715,24.20762 -4.31844,5.98806 -7.79715,12.54941 -10.58417,19.3781 -2.58599,6.40892 -4.775,12.97754 -6.63687,19.63206 -2.96416,11.37617 -5.36164,22.90097 -7.1511,34.52079 -1.46713,9.23917 -2.73086,18.50944 -3.84702,27.79719 -0.64605,5.78626 -1.16917,11.58576 -1.77587,17.37621 -1.13159,10.91546 -2.02514,21.85351 -2.80855,32.79901 -0.44983,6.8546 -1.07493,13.6971 -1.40468,20.5597 -0.49429,10.6896 -3.92685,35.4896 -4.21374,46.1887 -2.10557,18.58 -28.37008,13.6049 -28.0352,1.1211 0.33488,-12.4838 1.35642,-24.9344 1.93326,-37.407 0.38473,-8.0071 1.11405,-15.991 1.63893,-23.989 0.91414,-12.771 1.95671,-25.5336 3.27703,-38.26963 0.70794,-6.75639 1.31833,-13.52323 2.07208,-20.27455 1.30228,-10.83703 2.77681,-21.65344 4.48865,-32.43367 2.08794,-13.55799 4.8853,-27.0051 8.34394,-40.27892 2.1724,-7.76445 4.72655,-15.42871 7.74387,-22.90656 3.25183,-7.96777 7.31089,-15.62354 12.34952,-22.61035 7.89548,-11.19135 17.99413,-20.80428 29.4868,-28.24541 8.29066,-5.52951 17.39195,-9.70635 26.59925,-13.45355 7.13645,-2.73 14.40648,-5.09995 21.70825,-7.34426 11.93267,-3.56095 24.08231,-6.32716 36.23753,-9.00661 14.33878,-3.07823 28.79243,-5.58254 43.24362,-8.0657 11.90851,-2.01389 23.84492,-3.86058 35.80474,-5.54255 8.09137,-1.18878 16.19999,-2.25381 24.30185,-3.36782 6.60096,-0.84673 13.17966,-1.86277 19.7991,-2.56354 11.64099,-1.44152 39.40533,-4.76669 41.65267,-4.92194 z M 348.68166,505.2069 h 69.09046 c 2.73104,0 4.92967,2.19863 4.92967,4.92966 v 9.85933 c 0,2.73102 -2.19863,4.92965 -4.92967,4.92965 h -69.09046 c -2.73103,0 -4.92966,-2.19863 -4.92966,-4.92965 v -9.85933 c 0,-2.73103 2.19863,-4.92966 4.92966,-4.92966 z M 155.29054,617.5127 c -19.22166,0.1552 -22.02274,-27.296 -0.0913,-28.0352 1.92601,-0.133 41.06308,-5.5398 51.03993,-6.7753 5.67322,-0.6006 11.31145,-1.4713 16.96882,-2.197 6.94358,-0.95485 13.89303,-1.8675 20.82784,-2.88644 10.25004,-1.44145 20.48018,-3.02423 30.68631,-4.75015 12.38529,-2.12827 24.77277,-4.27459 37.06173,-6.91278 10.41762,-2.29633 20.83037,-4.66719 31.05733,-7.71898 6.25788,-1.9235 12.48859,-3.95465 18.60498,-6.29437 7.89105,-3.21151 15.69128,-6.79137 22.79675,-11.53039 9.84967,-6.37744 18.50481,-14.61616 25.2715,-24.20762 4.31845,-5.98806 7.79715,-12.54941 10.58417,-19.3781 2.58599,-6.40892 4.775,-12.97755 6.63687,-19.63206 2.96417,-11.37617 5.36164,-22.90098 7.15111,-34.52079 1.46712,-9.23917 2.73085,-18.50944 3.84701,-27.7972 0.64605,-5.78625 1.16917,-11.58575 1.77587,-17.3762 1.13159,-10.91546 2.02514,-21.85355 2.80856,-32.79896 0.44982,-6.85461 1.07492,-13.69716 1.40467,-20.55973 0.49429,-10.68959 3.92685,-35.48968 4.21374,-46.18873 2.10557,-18.57999 28.37008,-13.60495 28.0352,-1.12115 -0.33488,12.48379 -1.35642,24.93444 -1.93326,37.40703 -0.38473,8.0071 -1.11404,15.99099 -1.63893,23.98905 -0.91414,12.771 -1.9567,25.53362 -3.27703,38.2696 -0.70794,6.7564 -1.31833,13.52323 -2.07208,20.27455 -1.30228,10.83704 -2.77681,21.65344 -4.48865,32.43368 -2.08794,13.55799 -4.8853,27.0051 -8.34394,40.27891 -2.1724,7.76446 -4.72655,15.42872 -7.74386,22.90656 -3.25184,7.96778 -7.3109,15.62354 -12.34953,22.61036 -7.89548,11.19135 -17.99413,20.80428 -29.4868,28.24541 -8.29066,5.52951 -17.39195,9.70635 -26.59925,13.45354 -7.13645,2.73001 -14.40647,5.09996 -21.70825,7.34426 -11.93267,3.561 -24.0823,6.3272 -36.23753,9.0066 -14.33878,3.0782 -28.79243,5.5826 -43.24362,8.0657 -11.90851,2.0139 -23.84492,3.8606 -35.80474,5.5426 -8.09137,1.1888 -16.19999,2.2538 -24.30184,3.3678 -6.60097,0.8467 -13.17967,1.8628 -19.79911,2.5635 -11.64098,1.4415 -39.40533,4.7667 -41.65267,4.922 z" />
        </g>
      </g>
    </g>
  </g>
</svg>
