<?xml version="1.0" encoding="UTF-8" standalone="no"?>
<!-- Created with Inkscape (http://www.inkscape.org/) -->

<svg
   xmlns:dc="http://purl.org/dc/elements/1.1/"
   xmlns:cc="http://creativecommons.org/ns#"
   xmlns:rdf="http://www.w3.org/1999/02/22-rdf-syntax-ns#"
   xmlns:svg="http://www.w3.org/2000/svg"
   xmlns="http://www.w3.org/2000/svg"
   xmlns:sodipodi="http://sodipodi.sourceforge.net/DTD/sodipodi-0.dtd"
   xmlns:inkscape="http://www.inkscape.org/namespaces/inkscape"
   width="210mm"
   height="297mm"
   viewBox="0 0 210 297"
   version="1.1"
   id="svg843"
   inkscape:version="0.92.5 (2060ec1f9f, 2020-04-08)"
   sodipodi:docname="RNAdist_tabbar.svg">
  <defs
     id="defs837" />
  <sodipodi:namedview
     id="base"
     pagecolor="#ffffff"
     bordercolor="#666666"
     borderopacity="1.0"
     inkscape:pageopacity="0.0"
     inkscape:pageshadow="2"
     inkscape:zoom="0.98994949"
     inkscape:cx="158.23766"
     inkscape:cy="644.65973"
     inkscape:document-units="mm"
     inkscape:current-layer="layer1"
     showgrid="false"
     inkscape:window-width="1848"
     inkscape:window-height="1016"
     inkscape:window-x="72"
     inkscape:window-y="1107"
     inkscape:window-maximized="1" />
  <metadata
     id="metadata840">
    <rdf:RDF>
      <cc:Work
         rdf:about="">
        <dc:format>image/svg+xml</dc:format>
        <dc:type
           rdf:resource="http://purl.org/dc/dcmitype/StillImage" />
        <dc:title></dc:title>
      </cc:Work>
    </rdf:RDF>
  </metadata>
  <g
     inkscape:label="Layer 1"
     inkscape:groupmode="layer"
     id="layer1">
    <path
       style="fill:#141414;fill-opacity:1;stroke:none;stroke-width:2.64566922;stroke-miterlimit:4;stroke-dasharray:none;stroke-opacity:1"
       d="M 277.79297 275.95312 A 168.7559 168.75591 0 0 0 109.03711 444.70898 A 168.7559 168.75591 0 0 0 277.79297 613.46484 A 168.7559 168.75591 0 0 0 446.54883 444.70898 A 168.7559 168.75591 0 0 0 277.79297 275.95312 z M 182.54102 356.26953 C 196.55857 356.50158 210.39648 365.44531 210.39648 365.44531 C 272.77341 347.01003 316.92578 367.94531 316.92578 367.94531 C 350.2213 380.6336 384.51258 403.6053 386.93945 420.32227 C 389.32845 436.77837 345.80343 461.89329 334.73047 472.78906 C 312.40903 494.75337 339.14594 520.08955 352.18164 535.98242 C 352.6485 536.56421 358.59159 548.33684 361.01172 552.9082 A 19.642855 2.767857 0 0 1 373.6543 555.49023 A 19.642855 2.767857 0 0 1 354.01172 558.25781 A 19.642855 2.767857 0 0 1 334.36914 555.49023 A 19.642855 2.767857 0 0 1 346.42773 552.93945 C 349.99706 542.96152 329.7207 525.30078 329.7207 525.30078 C 329.7207 525.30078 302.95131 495.24973 321.00781 471.76367 C 335.02109 453.5366 372.61413 441.2131 369.9668 421.12695 C 369.36002 416.52341 339.93892 390.45047 326.18359 411.5332 C 326.18359 411.5332 312.18342 437.22528 288.98828 446.10547 L 285.9043 454.84375 C 285.9043 454.84375 279.59036 505.6032 279.33789 521.76562 C 279.08536 537.92809 278.83398 548.78711 278.83398 548.78711 L 279 550.16406 C 284.51308 549.11706 292.02347 546.38483 311.76953 549.82812 C 325.6226 555.72468 309.4043 551.93945 309.4043 551.93945 C 309.4043 551.93945 280.89153 549.58255 279.46094 554.01562 L 279.5918 555.10156 C 279.5918 555.10156 310.27461 556.23693 312.29492 561.03516 C 312.29492 561.03516 287.92517 557.62716 278.07617 558.38477 C 268.22718 559.14241 267.09161 552.70187 263.80859 555.35352 C 263.80859 555.35352 248.7814 558.13068 236.91211 559.89844 C 226.10626 561.5078 251.05648 554.6437 269.05859 551.30664 L 272.26758 546.26172 C 272.26758 546.26172 278.32812 509.39167 273.27734 473.53125 C 271.48949 460.8374 269.80249 453.30217 268.36133 448.78125 C 251.43419 446.80531 231.57931 434.36791 209.87305 401.83789 L 202.82031 391.20312 C 199.78985 386.15236 177.81836 418.22656 177.81836 418.22656 C 171.1402 402.10125 181.67645 393.14757 190.00977 388.80273 C 169.99087 395.46332 133.11914 401.55859 133.11914 401.55859 C 144.98843 384.1335 193.47656 379.08203 193.47656 379.08203 C 192.46641 374.53634 145.24023 376.55664 145.24023 376.55664 C 157.86714 364.18227 194.73828 368.72852 194.73828 368.72852 C 192.97051 362.6676 173.27344 357.61719 173.27344 357.61719 C 175.83828 356.74909 178.50645 356.34199 181.18555 356.27539 C 181.63764 356.26405 182.08883 356.26197 182.54102 356.26953 z "
       transform="scale(0.26458333)"
       id="path1412" />
  </g>
</svg>
